# xmcd CD database file
# Copyright (C) 1997 Ti Kan
#
# Track frame offsets:
#  150
#  16900
#  33465
#  52245
#  62987
#  75782
#  89892
#  101975
#  115882
#  133587
#
# Disc length: 1971 seconds
#
# Revision: 1
# Processed by: cddbd v1.4b41PL1 Copyright (c) Steve Scherf et al.
# Submitted via: CDWizzard Release:4.30
#
DISCID=8907b10a
DTITLE=Don Williams - Greatest Hits
DYEAR=1900
DGENRE=
TTITLE0=Love Is On A Roll
TTITLE1=That's the Thing About Love
TTITLE2=Maggie's Dream
TTITLE3=Louisiana Saturday Night
TTITLE4=Falling Again
TTITLE5=Stay Young
TTITLE6=Nobody But You
TTITLE7=Walkin' A Broken Heart
TTITLE8=It's Time for Love
TTITLE9=Cup O'Tea
EXTD=
EXTT0=
EXTT1=
EXTT2=
EXTT3=
EXTT4=
EXTT5=
EXTT6=
EXTT7=
EXTT8=
EXTT9=
PLAYORDER=
